<svg width="14" height="14" viewBox="0 0 14 14" fill="none" xmlns="http://www.w3.org/2000/svg">
<path d="M12.4225 9.44507L10.5175 9.22757C10.06 9.17507 9.60997 9.33257 9.28747 9.65507L7.90747 11.0351C5.78497 9.95507 4.04497 8.22257 2.96497 6.09257L4.35247 4.70507C4.67497 4.38257 4.83247 3.93257 4.77997 3.47507L4.56247 1.58507C4.47247 0.827569 3.83497 0.257568 3.06997 0.257568H1.77247C0.92497 0.257568 0.219969 0.962568 0.272469 1.81007C0.669969 8.21507 5.79247 13.3301 12.19 13.7276C13.0375 13.7801 13.7425 13.0751 13.7425 12.2276V10.9301C13.75 10.1726 13.18 9.53507 12.4225 9.44507Z" fill="#D65E4F"/>
</svg>
