<svg width="38" height="52" viewBox="0 0 38 52" fill="none" xmlns="http://www.w3.org/2000/svg">
<path d="M8.12197 17.9174L7.88992 18.2C7.59985 18.4826 7.59985 18.9348 7.88992 19.2174L9.74636 21.0261L10.0364 21.3087C10.3265 21.5913 10.7906 21.5913 11.0807 21.3087L14.9676 17.5217C15.2577 17.2391 15.2577 16.7869 14.9676 16.5043L14.6776 16.2217C14.3875 15.9391 13.9234 15.9391 13.6333 16.2217L10.5005 19.2174L9.16622 17.9174C8.87615 17.6348 8.41204 17.6348 8.12197 17.9174Z" fill="#D65E4F"/>
<path d="M14.9676 23.513L14.6776 23.2304C14.3875 22.9478 13.9234 22.9478 13.6333 23.2304L10.5005 26.2826L9.16622 24.9826C8.87615 24.7 8.41204 24.7 8.12197 24.9826L7.88992 25.2652C7.59985 25.5478 7.59985 26 7.88992 26.2826L9.74636 28.0913L10.0364 28.3739C10.3265 28.6565 10.7906 28.6565 11.0807 28.3739L14.9676 24.5869C15.2577 24.2478 15.2577 23.7956 14.9676 23.513Z" fill="#D65E4F"/>
<path d="M14.9676 30.5217L14.6776 30.2391C14.3875 29.9564 13.9234 29.9564 13.6333 30.2391L10.5005 33.2912L9.16622 31.9912C8.87615 31.7086 8.41204 31.7086 8.12197 31.9912L7.88992 32.2738C7.59985 32.5564 7.59985 33.0086 7.88992 33.2912L9.74636 35.0999L10.0364 35.3825C10.3265 35.6651 10.7906 35.6651 11.0807 35.3825L14.9676 31.5956C15.2577 31.2564 15.2577 30.8043 14.9676 30.5217Z" fill="#D65E4F"/>
<path d="M14.6776 37.3044C14.3875 37.0218 13.9234 37.0218 13.6333 37.3044L10.5005 40.3565L9.16622 39.0565C8.87615 38.7739 8.41204 38.7739 8.12197 39.0565L7.88992 39.3391C7.59985 39.6218 7.59985 40.0739 7.88992 40.3565L9.74636 42.1652L10.0364 42.4478C10.3265 42.7305 10.7906 42.7305 11.0807 42.4478L14.9676 38.6609C15.2577 38.3783 15.2577 37.9261 14.9676 37.6435L14.6776 37.3044Z" fill="#D65E4F"/>
<path d="M31.5596 5.99133H28.891V9.26959H31.5596C33.3 9.26959 34.6924 10.6261 34.6924 12.3218V45.6696C34.6924 47.3653 33.3 48.7218 31.5596 48.7218H6.49757C4.75715 48.7218 3.36481 47.3653 3.36481 45.6696V12.3218C3.36481 10.6261 4.75715 9.26959 6.49757 9.26959H9.16621V5.99133H6.49757C2.9007 5.99133 0 8.81742 0 12.3218V45.6696C0 49.174 2.9007 52 6.49757 52H31.5016C35.0985 52 37.9992 49.174 37.9992 45.6696V12.3218C38.0572 8.87394 35.0985 5.99133 31.5596 5.99133Z" fill="#D65E4F"/>
<path d="M11.4289 10.4H26.6286C26.9766 10.4 27.2087 10.1174 27.2087 9.83479V5.59565C27.2087 5.2 26.9186 4.80435 26.5705 4.69131L21.9294 3.61739V2.82609C21.9294 1.24348 20.5951 0 19.0287 0C17.4043 0 16.128 1.3 16.128 2.82609V3.61739L11.4869 4.69131C11.0808 4.80435 10.8488 5.2 10.8488 5.59565V9.83479C10.8488 10.1174 11.1388 10.4 11.4289 10.4ZM19.0287 1.41304C19.7249 1.41304 20.247 1.92174 20.247 2.6C20.247 3.27826 19.7249 3.78696 19.0287 3.78696C18.3326 3.78696 17.8104 3.27826 17.8104 2.6C17.8104 1.97826 18.3326 1.41304 19.0287 1.41304Z" fill="#D65E4F"/>
<path d="M30.2832 17.0697H17.8102V20.348H30.2832V17.0697Z" fill="#D65E4F"/>
<path d="M30.2832 24.1348H17.8102V27.413H30.2832V24.1348Z" fill="#D65E4F"/>
<path d="M30.2832 31.2001H17.8102V34.4783H30.2832V31.2001Z" fill="#D65E4F"/>
<path d="M30.2832 38.2087H17.8102V41.487H30.2832V38.2087Z" fill="#D65E4F"/>
</svg>
