<svg width="45" height="41" viewBox="0 0 45 41" fill="none" xmlns="http://www.w3.org/2000/svg">
<path d="M13.2448 29.0254L10.4332 28.7987L9.34481 26.1684C9.11807 25.6243 8.57389 25.2615 7.98435 25.2615C7.39482 25.2615 6.85064 25.6243 6.62389 26.1684L5.53553 28.7987L2.72391 29.0254C2.13438 29.0708 1.63554 29.4789 1.4088 30.0684C1.2274 30.658 1.4088 31.2475 1.86228 31.6556L4.03902 33.5149L3.40414 36.2812C3.1774 36.8707 3.40414 37.4603 3.90297 37.8231C4.40181 38.1858 5.03669 38.1858 5.53553 37.8684L7.98435 36.3719L10.4332 37.8684C10.6599 38.0044 10.932 38.0951 11.2041 38.0951C11.5215 38.0951 11.839 38.0044 12.0657 37.8231C12.5646 37.4603 12.7913 36.8707 12.6553 36.2812L12.0204 33.5149L14.1971 31.6556C14.6506 31.2475 14.832 30.658 14.6506 30.0684C14.3785 29.4789 13.8797 29.0708 13.2448 29.0254ZM10.8867 32.3359C10.4785 32.6987 10.2971 33.2428 10.3878 33.8324L11.0227 36.4626L8.70993 35.0568C8.48319 34.9207 8.2111 34.83 7.939 34.83C7.66691 34.83 7.39482 34.9207 7.16808 35.0568L4.8553 36.4626L5.49018 33.8324C5.62622 33.2882 5.44483 32.744 4.99134 32.3359L2.95065 30.5673L5.62622 30.3405C6.17041 30.2952 6.66924 29.9324 6.89599 29.4336L7.939 26.9394L8.98202 29.4336C9.20877 29.9324 9.66225 30.2952 10.2518 30.3405L12.9274 30.5673L10.8867 32.3359Z" fill="#D65E4F" stroke="#D65E4F" stroke-width="0.5"/>
<path d="M27.5297 31.2476L24.7181 30.9755L23.6297 28.3906C23.4029 27.8464 22.8588 27.4836 22.2692 27.4836C21.6797 27.4836 21.1355 27.8464 20.9088 28.3906L19.8204 31.0208L17.0088 31.2476C16.4193 31.2929 15.9204 31.7011 15.6937 32.2906C15.5123 32.8801 15.6937 33.4697 16.1472 33.8778L18.3239 35.7371L17.689 38.5034C17.553 39.0929 17.7797 39.6824 18.2785 40.0452C18.7774 40.408 19.4123 40.408 19.9111 40.0906L22.3599 38.5941L24.8088 40.0906C25.0355 40.2266 25.3076 40.3173 25.5797 40.3173C25.8971 40.3173 26.2146 40.2266 26.4413 40.0452C26.9401 39.6824 27.1669 39.0929 27.0308 38.5034L26.396 35.7371L28.5727 33.8778C29.0262 33.4697 29.2076 32.8801 29.0262 32.2906C28.6634 31.6557 28.1646 31.2929 27.5297 31.2476ZM25.1715 34.5127C24.7634 34.8755 24.582 35.4197 24.6727 35.9638L25.3076 38.5941L22.9948 37.1883C22.7681 37.0522 22.496 36.9615 22.2239 36.9615C21.9518 36.9615 21.6797 37.0522 21.453 37.1883L19.1402 38.5941L19.7751 35.9638C19.9111 35.4197 19.7297 34.8755 19.2762 34.4673L17.2355 32.6987L19.9111 32.472C20.4553 32.4266 20.9541 32.0639 21.1809 31.565L22.2239 29.0708L23.2669 31.565C23.4936 32.0639 23.9471 32.4266 24.5367 32.472L27.2122 32.6987L25.1715 34.5127Z" fill="#D65E4F" stroke="#D65E4F" stroke-width="0.5"/>
<path d="M41.8145 29.0254L39.0029 28.7987L37.9146 26.1684C37.6878 25.6243 37.1436 25.2615 36.5541 25.2615C35.9646 25.2615 35.4204 25.6243 35.1936 26.1684L34.1053 28.7987L31.2936 29.0254C30.7041 29.0708 30.2053 29.4789 29.9785 30.0684C29.7971 30.658 29.9785 31.2475 30.432 31.6556L32.6088 33.5149L31.9739 36.2812C31.8378 36.8707 32.0646 37.4603 32.5634 37.8231C33.0622 38.1858 33.6971 38.1858 34.196 37.8684L36.6448 36.3719L39.0936 37.8684C39.3204 38.0044 39.5925 38.0951 39.8645 38.0951C40.182 38.0951 40.4994 38.0044 40.7262 37.8231C41.225 37.4603 41.4517 36.8707 41.3157 36.2812L40.6808 33.5149L42.8576 31.6556C43.311 31.2475 43.4924 30.658 43.311 30.0684C42.9483 29.4789 42.4494 29.0708 41.8145 29.0254ZM39.4564 32.3359C39.0483 32.6987 38.8669 33.2428 38.9576 33.8324L39.5925 36.4626L37.2797 35.0568C37.0529 34.9207 36.7808 34.83 36.5087 34.83C36.2367 34.83 35.9646 34.9207 35.7378 35.0568L33.425 36.4626L34.0599 33.8324C34.196 33.2882 34.0146 32.744 33.5611 32.3359L31.5204 30.5673L34.196 30.3405C34.7401 30.2952 35.239 29.9324 35.4657 29.4336L36.5087 26.9394L37.5518 29.4336C37.7785 29.9324 38.232 30.2952 38.8215 30.3405L41.4971 30.5673L39.4564 32.3359Z" fill="#D65E4F" stroke="#D65E4F" stroke-width="0.5"/>
<path d="M43.9914 20.636L43.4925 16.3278C43.2204 13.9244 41.4972 11.9744 39.2751 11.2488C40.5449 10.2058 41.4065 8.57322 41.4065 6.80463C41.4065 3.63022 38.8216 1.04535 35.6472 1.04535C32.4728 1.04535 29.8879 3.63022 29.8879 6.80463C29.8879 8.61857 30.7042 10.2058 32.0193 11.2488C30.3868 11.7476 29.0263 12.972 28.3007 14.5139C27.6659 13.9697 26.9403 13.5616 26.124 13.2895C27.4391 12.2465 28.2554 10.6139 28.2554 8.84532C28.2554 5.67091 25.6705 3.08604 22.4961 3.08604C19.3217 3.08604 16.7368 5.67091 16.7368 8.84532C16.7368 10.6593 17.5531 12.2465 18.8682 13.2895C18.0519 13.5162 17.3264 13.9244 16.7368 14.4685C16.0113 12.8813 14.6508 11.7023 13.0182 11.2034C14.3334 10.1604 15.1496 8.52788 15.1496 6.75928C15.1496 3.58487 12.5648 1 9.39035 1C6.21594 1 3.63107 3.58487 3.63107 6.75928C3.63107 8.57322 4.44734 10.1604 5.76245 11.2034C3.54037 11.8837 1.81712 13.8337 1.54503 16.2825L1.04619 20.5906C0.819451 21.5883 1.45433 22.4953 2.36131 22.6767C4.58339 23.1301 6.89617 23.4022 9.29965 23.4022C10.9322 23.4022 12.5194 23.2662 14.0613 23.0394C14.1066 23.8557 14.6961 24.5813 15.5124 24.7627C17.7345 25.2162 20.0473 25.4883 22.4508 25.4883C24.8089 25.4883 27.167 25.2615 29.3891 24.7627C30.2054 24.5813 30.7949 23.8557 30.8403 23.0394C32.3821 23.2662 34.0147 23.4022 35.6472 23.4022C38.0053 23.4022 40.3635 23.1755 42.5856 22.6767C43.4472 22.4953 44.0821 21.5883 43.9914 20.636ZM31.4298 6.80463C31.4298 4.49185 33.2891 2.63255 35.6019 2.63255C37.9146 2.63255 39.7739 4.49185 39.7739 6.80463C39.7739 9.11741 37.9146 10.9767 35.6019 10.9767C33.2891 10.9767 31.4298 9.11741 31.4298 6.80463ZM18.2333 8.89067C18.2333 6.57788 20.0926 4.71859 22.4054 4.71859C24.7182 4.71859 26.5775 6.57788 26.5775 8.89067C26.5775 11.2034 24.7182 13.0627 22.4054 13.0627C20.138 13.0627 18.2333 11.2034 18.2333 8.89067ZM5.12757 6.80463C5.12757 4.49185 6.98687 2.63255 9.29965 2.63255C11.6124 2.63255 13.4717 4.49185 13.4717 6.80463C13.4717 9.11741 11.6124 10.9767 9.29965 10.9767C6.98687 10.9767 5.12757 9.11741 5.12757 6.80463ZM2.7241 21.1348C2.5427 21.1348 2.452 20.9988 2.49735 20.8174L2.99619 16.5092C3.26828 14.2418 5.17292 12.5639 7.44035 12.5639H9.2543H11.0682C13.1089 12.5639 14.8775 13.9697 15.3764 15.9197C14.9229 16.6453 14.6054 17.5069 14.4694 18.4139L14.1066 21.4522C10.4787 22.0418 6.39734 21.9511 2.7241 21.1348ZM29.0263 23.2208C24.8089 24.1278 20.0473 24.1278 15.8299 23.2208C15.6938 23.1755 15.6031 23.0394 15.6031 22.9034L16.1019 18.5953C16.374 16.3278 18.2787 14.6499 20.5461 14.6499H24.2647C26.5321 14.6499 28.4368 16.3278 28.7089 18.5953L29.2077 22.9034C29.2531 23.0394 29.1624 23.2208 29.0263 23.2208ZM42.1774 21.1348C38.5042 21.9057 34.3775 21.9964 30.6135 21.4069L30.2961 18.4139C30.2054 17.5069 29.8879 16.6906 29.4345 15.9651C29.9333 14.0151 31.7019 12.5639 33.7879 12.5639H35.6019H37.4158C39.6833 12.5639 41.5879 14.2418 41.86 16.5092L42.3588 20.8174C42.4495 20.9988 42.3588 21.1348 42.1774 21.1348Z" fill="#D65E4F" stroke="#D65E4F" stroke-width="0.5"/>
</svg>
