<svg width="44" height="52" viewBox="0 0 44 52" fill="none" xmlns="http://www.w3.org/2000/svg">
<path d="M43.439 25.7534L38.9119 18.7397C38.8041 18.5205 38.6963 18.2466 38.6963 17.9726C37.834 7.72603 29.5342 0 19.402 0C8.73092 0 0 8.82192 0 19.726C0 26.0274 2.85641 32.3288 7.70692 36.4931C7.81471 36.6027 8.03029 36.8219 8.03029 37.1507V47.5616C8.03029 49.1507 9.21597 50.5205 10.7789 50.6301L26.1928 52C26.3006 52 26.3544 52 26.4622 52C27.2168 52 27.9713 51.726 28.5102 51.1781C29.157 50.5753 29.4803 49.7534 29.4803 48.9315V42.1918H34.277C36.7561 42.1918 38.7502 40.1644 38.7502 37.6438V31.2329H40.4748C41.7683 31.2329 42.9001 30.5205 43.5468 29.3699C44.1936 28.2192 44.1397 26.8493 43.439 25.7534ZM40.9599 27.9452C40.906 28.0548 40.7443 28.2192 40.4748 28.2192H37.834C36.7022 28.2192 35.786 29.1507 35.786 30.3014V37.6438C35.786 38.5205 35.0854 39.1781 34.277 39.1781H28.8875C27.594 39.1781 26.57 40.2192 26.57 41.5342L26.4622 49.0411L10.9945 47.5616V37.1507C10.9945 36.0548 10.5094 34.9589 9.64713 34.2466C5.55114 30.6849 2.9642 25.0959 2.9642 19.726C2.9642 10.4658 10.2939 3.0137 19.402 3.0137C27.9713 3.0137 35.0315 9.58904 35.786 18.2466C35.8399 18.9589 36.0555 19.6164 36.4327 20.3288L41.0138 27.3973C41.1216 27.6164 41.0138 27.8356 40.9599 27.9452Z" fill="#D65E4F"/>
<path d="M24.0908 12.4384C22.42 12.4384 20.8032 13.0959 19.6175 14.2466C18.3779 13.0959 16.815 12.4384 15.1443 12.4384C13.3118 12.4384 11.5872 13.2055 10.3476 14.5205C7.86849 17.1507 7.97628 21.4247 10.5632 24L18.0007 31.5616C18.4318 32 19.0786 32.274 19.6714 32.274C20.2642 32.274 20.8571 32.0548 21.3421 31.5616L28.8874 23.8904C30.1269 22.6301 30.8276 20.9315 30.8276 19.1233C30.8276 17.3151 30.1269 15.6164 28.8874 14.3562C27.54 13.1507 25.8693 12.4384 24.0908 12.4384ZM26.6777 21.8082L19.6175 29.0411L12.6112 21.9178C11.1561 20.4384 11.1022 18.0822 12.4495 16.6027C13.1502 15.8356 14.1203 15.4521 15.1443 15.4521C16.1144 15.4521 17.0845 15.8356 17.7312 16.5479L18.5935 17.4247C19.1864 18.0274 20.1026 18.0274 20.6954 17.4247L21.5577 16.5479C22.959 15.1233 25.3842 15.1233 26.7855 16.5479C27.4861 17.2603 27.8634 18.1918 27.8634 19.1781C27.7556 20.1644 27.3783 21.0959 26.6777 21.8082Z" fill="#D65E4F"/>
</svg>
